<svg width="20" height="20" viewBox="0 0 20 20" fill="none" xmlns="http://www.w3.org/2000/svg">
<path d="M10.001 1.80723C12.6516 1.80723 13.013 1.80723 14.0974 1.80723C15.0612 1.80723 15.5431 2.04819 15.9046 2.16868C16.3865 2.40964 16.748 2.53012 17.1094 2.89157C17.4709 3.25301 17.7118 3.61446 17.8323 4.09639C17.9528 4.45783 18.0733 4.93976 18.1938 5.90362C18.1938 6.98795 18.1938 7.22892 18.1938 10C18.1938 12.7711 18.1938 13.0121 18.1938 14.0964C18.1938 15.0602 17.9528 15.5422 17.8323 15.9036C17.5913 16.3855 17.4709 16.747 17.1094 17.1084C16.748 17.4699 16.3865 17.7108 15.9046 17.8313C15.5431 17.9518 15.0612 18.0723 14.0974 18.1928C13.013 18.1928 12.7721 18.1928 10.001 18.1928C7.22989 18.1928 6.98893 18.1928 5.90459 18.1928C4.94074 18.1928 4.45881 17.9518 4.09736 17.8313C3.61544 17.5904 3.25399 17.4699 2.89254 17.1084C2.5311 16.747 2.29013 16.3855 2.16965 15.9036C2.04917 15.5422 1.92869 15.0602 1.80821 14.0964C1.80821 13.0121 1.80821 12.7711 1.80821 10C1.80821 7.22892 1.80821 6.98795 1.80821 5.90362C1.80821 4.93976 2.04917 4.45783 2.16965 4.09639C2.41062 3.61446 2.5311 3.25301 2.89254 2.89157C3.25399 2.53012 3.61544 2.28916 4.09736 2.16868C4.45881 2.04819 4.94074 1.92771 5.90459 1.80723C6.98893 1.80723 7.35038 1.80723 10.001 1.80723ZM10.001 0C7.22989 0 6.98893 0 5.90459 0C4.82025 0 4.09736 0.240965 3.49495 0.481928C2.89254 0.722892 2.29013 1.08434 1.68772 1.68675C1.08531 2.28916 0.844351 2.77109 0.482905 3.49398C0.241941 4.09639 0.121459 4.81928 0.000976562 5.90362C0.000976562 6.98795 0.000976562 7.3494 0.000976562 10C0.000976562 12.7711 0.000976562 13.0121 0.000976562 14.0964C0.000976562 15.1807 0.241941 15.9036 0.482905 16.506C0.723869 17.1084 1.08531 17.7108 1.68772 18.3133C2.29013 18.9157 2.77206 19.1566 3.49495 19.5181C4.09736 19.759 4.82025 19.8795 5.90459 20C6.98893 20 7.35038 20 10.001 20C12.6516 20 13.013 20 14.0974 20C15.1817 20 15.9046 19.759 16.507 19.5181C17.1094 19.2771 17.7118 18.9157 18.3142 18.3133C18.9166 17.7108 19.1576 17.2289 19.5191 16.506C19.76 15.9036 19.8805 15.1807 20.001 14.0964C20.001 13.0121 20.001 12.6506 20.001 10C20.001 7.3494 20.001 6.98795 20.001 5.90362C20.001 4.81928 19.76 4.09639 19.5191 3.49398C19.2781 2.89157 18.9166 2.28916 18.3142 1.68675C17.7118 1.08434 17.2299 0.843374 16.507 0.481928C15.9046 0.240965 15.1817 0.120482 14.0974 0C13.013 0 12.7721 0 10.001 0Z" fill="white"/>
<path d="M10.001 4.81928C7.10941 4.81928 4.82025 7.10843 4.82025 10C4.82025 12.8916 7.10941 15.1807 10.001 15.1807C12.8925 15.1807 15.1817 12.8916 15.1817 10C15.1817 7.10843 12.8925 4.81928 10.001 4.81928ZM10.001 13.3735C8.19375 13.3735 6.62748 11.9277 6.62748 10C6.62748 8.19277 8.07327 6.62651 10.001 6.62651C11.8082 6.62651 13.3745 8.07229 13.3745 10C13.3745 11.8072 11.8082 13.3735 10.001 13.3735Z" fill="white"/>
<path d="M15.3022 5.90362C15.9676 5.90362 16.507 5.3642 16.507 4.6988C16.507 4.03339 15.9676 3.49398 15.3022 3.49398C14.6368 3.49398 14.0974 4.03339 14.0974 4.6988C14.0974 5.3642 14.6368 5.90362 15.3022 5.90362Z" fill="white"/>
</svg>
