<svg width="21" height="20" viewBox="0 0 21 20" fill="none" xmlns="http://www.w3.org/2000/svg">
<path fill-rule="evenodd" clip-rule="evenodd" d="M2.38097 9.99998C2.38097 5.52911 6.00532 1.90476 10.4762 1.90476C14.947 1.90476 18.5714 5.52911 18.5714 9.99998C18.5714 14.4708 14.947 18.0952 10.4762 18.0952C8.8836 18.0952 7.4012 17.6363 6.15045 16.8439C5.91767 16.6964 5.63245 16.657 5.36841 16.7358L2.62637 17.5542L3.65878 15.1383C3.78081 14.8528 3.75598 14.5258 3.59225 14.262C2.82447 13.0247 2.38097 11.5656 2.38097 9.99998ZM10.4762 0C4.95335 0 0.47621 4.47714 0.47621 9.99998C0.47621 11.7505 0.926819 13.3984 1.71871 14.8311L0.0766393 18.6733C-0.0685242 19.013 -0.00417958 19.406 0.241734 19.6816C0.487648 19.9573 0.870781 20.0659 1.22475 19.9601L5.5099 18.6814C6.97375 19.5204 8.67017 20 10.4762 20C15.999 20 20.4761 15.5228 20.4761 9.99998C20.4761 4.47714 15.999 0 10.4762 0ZM12.6595 12.0784L11.4079 12.9601C10.8217 12.6262 10.1736 12.1601 9.52351 11.51C8.8477 10.8342 8.34667 10.1365 7.97724 9.49646L8.77265 8.82131C9.11398 8.5316 9.20741 8.04315 8.99712 7.64787L7.98364 5.74311C7.84717 5.48663 7.60109 5.30646 7.31537 5.25384C7.02963 5.20122 6.73552 5.28189 6.51663 5.47293L6.21614 5.73518C5.49354 6.36583 5.06618 7.40217 5.42038 8.4515C5.78759 9.53931 6.57125 11.2514 8.17667 12.8568C9.90389 14.5841 11.6584 15.2643 12.6844 15.5284C13.511 15.7412 14.2933 15.456 14.8445 15.0068L15.4079 14.5478C15.6488 14.3515 15.7788 14.0499 15.7562 13.7399C15.7334 13.4299 15.5608 13.1504 15.2938 12.9913L13.6954 12.0389C13.3725 11.8466 12.9668 11.8621 12.6595 12.0784Z" fill="white"/>
</svg>
