<svg width="21" height="22" viewBox="0 0 21 22" fill="none" xmlns="http://www.w3.org/2000/svg">
<path d="M0.703951 0H2.63779L3.88345 3.83309H4.00392L5.1919 0H7.14231L4.9077 5.61053V9.5906H2.98821V5.78902L0.703951 0ZM7.34542 4.1302C7.34542 3.56746 7.57664 3.12022 8.03941 2.78633C8.50159 2.45249 9.12286 2.28557 9.90344 2.28557C10.6143 2.28557 11.1964 2.46195 11.6499 2.81364C12.1046 3.16532 12.3313 3.61782 12.3313 4.1722V7.92551C12.3313 8.54704 12.1082 9.03522 11.6636 9.38905C11.2184 9.74284 10.6053 9.92028 9.82547 9.92028C9.07401 9.92028 8.47297 9.73758 8.02178 9.37226C7.57117 9.0069 7.34542 8.51556 7.34542 7.89715V4.1302ZM9.11318 8.03361C9.11318 8.23415 9.17378 8.38744 9.29639 8.49768C9.41871 8.60687 9.59325 8.66039 9.8203 8.66039C10.0531 8.66039 10.2381 8.60582 10.3749 8.49452C10.5119 8.38222 10.5807 8.22889 10.5807 8.03361V4.07559C10.5807 3.91704 10.5103 3.78895 10.3707 3.69133C10.2311 3.59367 10.0476 3.54431 9.8203 3.54431C9.61109 3.54431 9.44046 3.59367 9.30977 3.69133C9.17853 3.78895 9.11318 3.91704 9.11318 4.07559V8.03361ZM18.6137 2.40212V9.66937H16.8935V8.86725C16.5759 9.16334 16.2463 9.38795 15.9029 9.54339C15.5602 9.69668 15.2268 9.77435 14.9045 9.77435C14.5066 9.77435 14.2063 9.66621 14.0047 9.44993C13.8031 9.23361 13.7024 8.90924 13.7024 8.47668V2.40212H15.4231V7.97276C15.4231 8.146 15.4594 8.26987 15.5313 8.34755C15.6038 8.42421 15.7203 8.46305 15.8814 8.46305C16.0084 8.46305 16.1686 8.41159 16.3611 8.30976C16.5548 8.20793 16.7322 8.07775 16.8934 7.9192V2.40212H18.6137ZM17.0017 15.2641C16.9172 15.1707 16.7827 15.1224 16.598 15.1224C16.4048 15.1224 16.2663 15.1707 16.1823 15.2641C16.0983 15.3586 16.0563 15.515 16.0563 15.7334V16.1859H17.1282V15.7334C17.1282 15.515 17.0862 15.3586 17.0017 15.2641ZM11.9177 18.671C12.01 18.7088 12.1077 18.7266 12.2106 18.7266C12.3596 18.7266 12.4678 18.6909 12.5381 18.6174C12.6084 18.5449 12.6431 18.4242 12.6431 18.2584V15.6421C12.6431 15.4657 12.6 15.3324 12.514 15.241C12.4273 15.1497 12.3009 15.1045 12.1371 15.1045C12.0504 15.1045 11.9649 15.1213 11.8803 15.1549C11.7958 15.1896 11.7124 15.2431 11.63 15.3145V18.4872C11.7287 18.5733 11.8247 18.6342 11.9177 18.671ZM19.8973 13.1318C19.8973 11.872 18.6032 10.8504 17.0085 10.8504C14.7334 10.7738 12.4054 10.7402 10.0303 10.7444C7.65596 10.7402 5.32785 10.7737 3.052 10.8504C1.45806 10.8504 0.164096 11.872 0.164096 13.1318C0.0682859 14.1282 0.0267975 15.1255 0.0305004 16.1229C0.0268396 17.1203 0.0682859 18.1176 0.164096 19.1151C0.164096 20.3738 1.45806 21.3953 3.052 21.3953C5.32785 21.4709 7.65596 21.5046 10.0303 21.5014C12.4054 21.5046 14.7334 21.4709 17.0085 21.3953C18.6032 21.3953 19.8973 20.3738 19.8973 19.1151C19.9928 18.1176 20.0342 17.1203 20.03 16.1229C20.0342 15.1255 19.9928 14.1282 19.8973 13.1318ZM4.36036 19.4804V19.556H2.99398V19.4804V13.5129H1.58034V13.4384V12.4873V12.4127H5.77429V12.4873V13.4384V13.5129H4.36036V19.4804ZM9.22103 14.3413V19.4804V19.556H8.00789V19.4804V18.9796C7.78374 19.1927 7.55143 19.3534 7.30974 19.4647C7.0675 19.5749 6.83283 19.6305 6.60503 19.6305C6.32471 19.6305 6.11339 19.5528 5.97113 19.3985C5.82861 19.2431 5.75746 19.0101 5.75746 18.6993V18.6237V14.3413V14.2667H6.97114V14.3413V18.2636C6.97114 18.3864 6.99635 18.4767 7.04697 18.5313C7.09818 18.5869 7.18056 18.6142 7.29421 18.6142C7.38371 18.6142 7.49631 18.5775 7.63281 18.5051C7.76876 18.4315 7.89369 18.3381 8.00789 18.2247V14.3413V14.2667H9.22103V14.3413ZM13.8919 15.5833V18.4001V18.4757C13.8919 18.8463 13.7969 19.1297 13.6069 19.3271C13.4168 19.5224 13.1418 19.6211 12.7827 19.6211C12.5454 19.6211 12.3345 19.5833 12.1486 19.5077C11.9623 19.4311 11.7896 19.3134 11.63 19.1549V19.4804V19.556H10.4053V19.4804V12.4872V12.4127H11.63V12.4872V14.6877C11.7938 14.5281 11.967 14.4074 12.1508 14.3255C12.335 14.2426 12.5214 14.2006 12.7093 14.2006C13.0925 14.2006 13.3864 14.3119 13.5885 14.5345C13.7906 14.757 13.8919 15.0815 13.8919 15.5077V15.5833ZM18.377 15.7429V16.9954V17.071H16.0563V17.9791C16.0563 18.2531 16.0962 18.4432 16.176 18.5492C16.2563 18.6553 16.3928 18.7088 16.5859 18.7088C16.787 18.7088 16.9282 18.6636 17.0085 18.5733C17.0883 18.4841 17.1282 18.2857 17.1282 17.9791V17.6925V17.6169H18.377V17.6925V18.0085V18.0841C18.377 18.6185 18.2253 19.0206 17.9209 19.2914C17.6169 19.5623 17.1628 19.6967 16.5586 19.6967C16.0153 19.6967 15.5881 19.5529 15.2757 19.2663C14.9639 18.9796 14.8075 18.5849 14.8075 18.0841V18.0085V15.7429V15.6684C14.8075 15.2159 14.9791 14.8473 15.3214 14.5618C15.6641 14.2772 16.1078 14.1345 16.6505 14.1345C17.2059 14.1345 17.6321 14.2668 17.9304 14.5302C18.2275 14.7938 18.377 15.1739 18.377 15.6684V15.7429H18.377Z" fill="white"/>
</svg>
